<svg width="350" height="350" viewBox="0 0 350 350" fill="none" xmlns="http://www.w3.org/2000/svg">
<line x1="178" y1="224.048" x2="178" y2="182" stroke="white" stroke-width="40"/>
<rect width="350" height="350" fill="#EEEEFF"/>
<path d="M295.5 250.878C295.5 254.069 293.524 258.023 287.813 262.439C282.176 266.797 273.675 270.96 262.679 274.556C240.746 281.729 210.1 286.257 176 286.257C141.9 286.257 111.254 281.729 89.3212 274.556C78.3248 270.96 69.824 266.797 64.1873 262.439C58.4763 258.023 56.5 254.069 56.5 250.878C56.5 247.688 58.4763 243.733 64.1873 239.318C69.824 234.96 78.3248 230.797 89.3212 227.201C111.254 220.028 141.9 215.5 176 215.5C210.1 215.5 240.746 220.028 262.679 227.201C273.675 230.797 282.176 234.96 287.813 239.318C293.524 243.733 295.5 247.688 295.5 250.878Z" stroke="#3330BA" stroke-width="11"/>
<path d="M295.745 189.052C296.816 172.185 294.51 155.271 288.97 139.35C283.43 123.429 274.772 108.836 263.528 96.4695C252.284 84.1026 238.691 74.2221 223.585 67.435C208.479 60.6479 192.178 57.0975 175.684 57.002C159.19 56.9064 142.851 60.2677 127.671 66.8794C112.491 73.491 98.7902 83.2134 87.4105 95.4492C76.0307 107.685 67.2122 122.176 61.4967 138.032C55.7812 153.888 53.2893 170.774 54.1743 187.653L66.2569 186.987C65.4604 171.797 67.7031 156.599 72.847 142.329C77.991 128.058 85.9276 115.017 96.1694 104.004C106.411 92.992 118.742 84.2419 132.404 78.2914C146.066 72.341 160.771 69.3158 175.616 69.4018C190.46 69.4878 205.131 72.6831 218.726 78.7915C232.322 84.8999 244.555 93.7923 254.675 104.923C264.795 116.053 272.587 129.186 277.573 143.515C282.559 157.844 284.634 173.066 283.67 188.247L295.745 189.052Z" fill="#3330BA"/>
<line x1="54" y1="192.5" x2="126" y2="192.5" stroke="#3330BA" stroke-width="11"/>
<line x1="231" y1="192.5" x2="296" y2="192.5" stroke="#3330BA" stroke-width="11"/>
<line x1="127.5" y1="184" x2="127.5" y2="150" stroke="#3330BA" stroke-width="11"/>
<line x1="127.5" y1="198" x2="127.5" y2="156" stroke="#3330BA" stroke-width="11"/>
<path d="M151 191.042L181.369 159.618" stroke="#3330BA" stroke-width="11"/>
<line x1="180.712" y1="166.288" x2="204.754" y2="190.329" stroke="#3330BA" stroke-width="10.5"/>
<line x1="188.304" y1="249.66" x2="277.037" y2="267.987" stroke="#3330BA" stroke-width="11"/>
<line x1="74.8876" y1="268.773" x2="167.66" y2="249.614" stroke="#3330BA" stroke-width="11"/>
<line x1="163.5" y1="255" x2="163.5" y2="223" stroke="#3330BA" stroke-width="11"/>
<line x1="192.5" y1="255" x2="192.5" y2="223" stroke="#3330BA" stroke-width="11"/>
<line x1="178.501" y1="285.089" x2="177.501" y2="223.089" stroke="#3330BA" stroke-width="11"/>
<line x1="203.5" y1="221" x2="203.5" y2="187" stroke="#3330BA" stroke-width="11"/>
<line x1="152.5" y1="221" x2="152.5" y2="187" stroke="#3330BA" stroke-width="11"/>
<path d="M226.5 198V155" stroke="#3330BA" stroke-width="11"/>
<line x1="125.505" y1="154.016" x2="182.505" y2="104.016" stroke="#3330BA" stroke-width="10.6"/>
<line x1="179.854" y1="109.177" x2="228.204" y2="159.177" stroke="#3330BA" stroke-width="11"/>
<line x1="178" y1="205" x2="178" y2="222" stroke="#EEEEFF" stroke-width="40"/>
</svg>
