<svg width="120" height="121" viewBox="0 0 120 121" fill="none" xmlns="http://www.w3.org/2000/svg">
<path d="M117.094 40.5735L62.7192 10.5735C61.8867 10.1139 60.9513 9.8728 60.0004 9.8728C59.0495 9.8728 58.1141 10.1139 57.2817 10.5735L2.90669 40.5735C2.0275 41.0599 1.29465 41.773 0.78434 42.6385C0.274029 43.5041 0.00488281 44.4906 0.00488281 45.4953C0.00488281 46.5001 0.274029 47.4866 0.78434 48.3522C1.29465 49.2177 2.0275 49.9308 2.90669 50.4172L13.1254 56.0422V78.4297C13.1217 80.7343 13.9717 82.9586 15.5114 84.6735C21.8583 91.7657 36.0942 103.625 60.0004 103.625C66.3494 103.659 72.6682 102.751 78.7504 100.93V113C78.7504 114.492 79.3431 115.923 80.398 116.978C81.4529 118.032 82.8836 118.625 84.3754 118.625C85.8673 118.625 87.298 118.032 88.3529 116.978C89.4078 115.923 90.0004 114.492 90.0004 113V96.1813C95.4331 93.1805 100.329 89.298 104.49 84.6922C106.029 82.9774 106.879 80.7531 106.875 78.4485V56.061L117.094 50.436C117.973 49.9495 118.706 49.2365 119.217 48.3709C119.727 47.5053 119.996 46.5189 119.996 45.5141C119.996 44.5093 119.727 43.5229 119.217 42.6573C118.706 41.7917 117.973 41.0787 117.094 40.5922V40.5735ZM60.0004 21.9266L102.732 45.5L87.1879 54.0782C87.1588 54.0611 87.1306 54.0423 87.1036 54.0219L62.7286 40.5735C61.4272 39.9009 59.9147 39.7625 58.5129 40.1878C57.1111 40.6131 55.9305 41.5684 55.2221 42.8507C54.5138 44.133 54.3337 45.6411 54.7201 47.0541C55.1064 48.4672 56.0288 49.6737 57.2911 50.4172L75.5723 60.4907L60.0004 69.0782L17.2692 45.5L60.0004 21.9266ZM60.0004 92.375C41.0536 92.375 29.6958 83.436 24.3754 77.7172V62.2485L57.2817 80.4079C58.1141 80.8675 59.0495 81.1085 60.0004 81.1085C60.9513 81.1085 61.8867 80.8675 62.7192 80.4079L78.7504 71.5813V89.0329C72.7609 91.2967 66.4033 92.4299 60.0004 92.375ZM95.6254 77.7172C93.9006 79.5659 92.0185 81.2613 90.0004 82.7844V65.3703L95.6254 62.2672V77.7172Z" fill="#3F3BE1" fill-opacity="0.2"/>
</svg>
