<svg width="20" height="20" viewBox="0 0 20 20" fill="none" xmlns="http://www.w3.org/2000/svg">
<path fill-rule="evenodd" clip-rule="evenodd" d="M1.29333 5.06878C1.45958 3.01956 3.23942 1.66667 5.16536 1.66667H14.835C16.7609 1.66667 18.5408 3.01956 18.707 5.06878C18.8298 6.5824 18.835 8.56439 18.2938 10.2542C17.8082 11.7704 16.7768 13.2271 15.6693 14.4731C14.5524 15.7296 13.3061 16.8288 12.3211 17.6271C10.9584 18.7315 9.04192 18.7315 7.6792 17.6271C6.69419 16.8288 5.44795 15.7296 4.33102 14.4731C3.22349 13.2271 2.19215 11.7704 1.70654 10.2542C1.16532 8.56439 1.17054 6.5824 1.29333 5.06878ZM5.16536 3.33334C3.97458 3.33334 3.04031 4.14627 2.95454 5.20355C2.83725 6.64935 2.85308 8.36985 3.29379 9.74582C3.67591 10.9389 4.53168 12.1902 5.5767 13.3658C6.61231 14.5309 7.78406 15.5668 8.72856 16.3323C9.47954 16.9409 10.5208 16.9409 11.2718 16.3323C12.2163 15.5668 13.388 14.5309 14.4236 13.3658C15.4687 12.1902 16.3244 10.9389 16.7065 9.74582C17.1472 8.36985 17.1631 6.64935 17.0458 5.20355C16.96 4.14627 16.0257 3.33334 14.835 3.33334H5.16536ZM10.0002 5.83334C10.4604 5.83334 10.8335 6.20643 10.8335 6.66667V10C10.8335 10.4602 10.4604 10.8333 10.0002 10.8333C9.53993 10.8333 9.16683 10.4602 9.16683 10V6.66667C9.16683 6.20643 9.53993 5.83334 10.0002 5.83334Z" fill="#FF0000"/>
<path d="M10.8337 13.3333C10.8337 13.7936 10.4606 14.1667 10.0003 14.1667C9.54009 14.1667 9.16699 13.7936 9.16699 13.3333C9.16699 12.8731 9.54009 12.5 10.0003 12.5C10.4606 12.5 10.8337 12.8731 10.8337 13.3333Z" fill="#FF0000"/>
</svg>
