<svg
              width="20"
              height="20"
              viewBox="0 0 26 26"
              fill="none"
              xmlns="http://www.w3.org/2000/svg"
              className="text-gray-600 hover:text-gray-900"
            >
              <path
                d="M18.7095 23.2268H7.29116C5.93215 23.2268 4.62879 22.687 3.66783 21.726C2.70686 20.765 2.16699 19.4617 2.16699 18.1027V13.5202C2.16985 12.162 2.71064 10.8603 3.67099 9.89999C4.63134 8.93964 5.93302 8.39886 7.29116 8.396H18.7095C20.0676 8.39886 21.3693 8.93964 22.3297 9.89999C23.29 10.8603 23.8308 12.162 23.8337 13.5202V18.1027C23.8337 19.4617 23.2938 20.765 22.3328 21.726C21.3719 22.687 20.0685 23.2268 18.7095 23.2268ZM7.29116 10.5627C6.50678 10.5627 5.75453 10.8743 5.19989 11.4289C4.64525 11.9835 4.33366 12.7358 4.33366 13.5202V18.1027C4.33366 18.887 4.64525 19.6393 5.19989 20.1939C5.75453 20.7486 6.50678 21.0602 7.29116 21.0602H18.7095C19.4939 21.0602 20.2461 20.7486 20.8008 20.1939C21.3554 19.6393 21.667 18.887 21.667 18.1027V13.5202C21.667 12.7358 21.3554 11.9835 20.8008 11.4289C20.2461 10.8743 19.4939 10.5627 18.7095 10.5627H7.29116Z"
                fill="black"
              />
              <path
                d="M13.0003 18.2974H12.8703L3.12029 17.0841C2.83297 17.0496 2.57112 16.9024 2.39233 16.6749C2.21355 16.4473 2.13248 16.1581 2.16696 15.8708C2.20143 15.5835 2.34864 15.3216 2.57618 15.1428C2.80372 14.964 3.09297 14.883 3.38029 14.9174L13.0003 16.1199L22.6203 14.9174C22.7626 14.9004 22.9068 14.9115 23.0448 14.9502C23.1827 14.9888 23.3117 15.0543 23.4244 15.1428C23.5371 15.2313 23.6312 15.3412 23.7014 15.4661C23.7716 15.591 23.8165 15.7285 23.8336 15.8708C23.8507 16.013 23.8396 16.1573 23.8009 16.2952C23.7622 16.4332 23.6968 16.5622 23.6082 16.6749C23.5197 16.7876 23.4099 16.8817 23.285 16.9519C23.1601 17.0221 23.0226 17.067 22.8803 17.0841L13.1303 18.2974H13.0003Z"
                fill="black"
              />
              <path
                d="M17.2684 9.86927C16.9811 9.86927 16.7056 9.75513 16.5024 9.55197C16.2992 9.34881 16.1851 9.07325 16.1851 8.78594C16.1851 6.61927 14.7551 4.9401 13.0001 4.9401C11.2451 4.9401 9.81511 6.6626 9.81511 8.78594C9.81511 9.07325 9.70097 9.34881 9.4978 9.55197C9.29464 9.75513 9.01909 9.86927 8.73177 9.86927C8.44445 9.86927 8.1689 9.75513 7.96574 9.55197C7.76257 9.34881 7.64844 9.07325 7.64844 8.78594C7.64844 5.47094 10.0534 2.77344 13.0001 2.77344C15.9468 2.77344 18.3518 5.47094 18.3518 8.78594C18.3518 8.9282 18.3238 9.06907 18.2693 9.20051C18.2149 9.33195 18.1351 9.45137 18.0345 9.55197C17.9339 9.65257 17.8145 9.73236 17.683 9.78681C17.5516 9.84125 17.4107 9.86927 17.2684 9.86927Z"
                fill="black"
              />
            </svg>