<svg width="90" height="90" viewBox="0 0 90 90" fill="none" xmlns="http://www.w3.org/2000/svg">
<path d="M60.4688 43.5938C60.4688 44.7126 60.0243 45.7857 59.2331 46.5769C58.4419 47.368 57.3689 47.8125 56.25 47.8125H33.75C32.6311 47.8125 31.5581 47.368 30.7669 46.5769C29.9757 45.7857 29.5312 44.7126 29.5312 43.5938C29.5312 42.4749 29.9757 41.4018 30.7669 40.6106C31.5581 39.8195 32.6311 39.375 33.75 39.375H56.25C57.3689 39.375 58.4419 39.8195 59.2331 40.6106C60.0243 41.4018 60.4688 42.4749 60.4688 43.5938ZM56.25 53.4375H33.75C32.6311 53.4375 31.5581 53.882 30.7669 54.6731C29.9757 55.4643 29.5312 56.5374 29.5312 57.6562C29.5312 58.7751 29.9757 59.8482 30.7669 60.6394C31.5581 61.4305 32.6311 61.875 33.75 61.875H56.25C57.3689 61.875 58.4419 61.4305 59.2331 60.6394C60.0243 59.8482 60.4688 58.7751 60.4688 57.6562C60.4688 56.5374 60.0243 55.4643 59.2331 54.6731C58.4419 53.882 57.3689 53.4375 56.25 53.4375ZM77.3438 14.0625V70.3125C77.3438 73.6691 76.0103 76.8883 73.6368 79.2618C71.2633 81.6353 68.0441 82.9688 64.6875 82.9688H25.3125C21.9559 82.9688 18.7367 81.6353 16.3632 79.2618C13.9897 76.8883 12.6563 73.6691 12.6562 70.3125V14.0625C12.6562 12.9436 13.1007 11.8706 13.8919 11.0794C14.6831 10.2882 15.7561 9.84375 16.875 9.84375H25.3125V8.4375C25.3125 7.31862 25.757 6.24556 26.5481 5.45439C27.3393 4.66322 28.4124 4.21875 29.5312 4.21875C30.6501 4.21875 31.7232 4.66322 32.5144 5.45439C33.3055 6.24556 33.75 7.31862 33.75 8.4375V9.84375H40.7812V8.4375C40.7812 7.31862 41.2257 6.24556 42.0169 5.45439C42.8081 4.66322 43.8811 4.21875 45 4.21875C46.1189 4.21875 47.1919 4.66322 47.9831 5.45439C48.7743 6.24556 49.2188 7.31862 49.2188 8.4375V9.84375H56.25V8.4375C56.25 7.31862 56.6945 6.24556 57.4856 5.45439C58.2768 4.66322 59.3499 4.21875 60.4688 4.21875C61.5876 4.21875 62.6607 4.66322 63.4519 5.45439C64.243 6.24556 64.6875 7.31862 64.6875 8.4375V9.84375H73.125C74.2439 9.84375 75.3169 10.2882 76.1081 11.0794C76.8993 11.8706 77.3438 12.9436 77.3438 14.0625ZM68.9062 18.2812H64.6875V19.6875C64.6875 20.8064 64.243 21.8794 63.4519 22.6706C62.6607 23.4618 61.5876 23.9062 60.4688 23.9062C59.3499 23.9062 58.2768 23.4618 57.4856 22.6706C56.6945 21.8794 56.25 20.8064 56.25 19.6875V18.2812H49.2188V19.6875C49.2188 20.8064 48.7743 21.8794 47.9831 22.6706C47.1919 23.4618 46.1189 23.9062 45 23.9062C43.8811 23.9062 42.8081 23.4618 42.0169 22.6706C41.2257 21.8794 40.7812 20.8064 40.7812 19.6875V18.2812H33.75V19.6875C33.75 20.8064 33.3055 21.8794 32.5144 22.6706C31.7232 23.4618 30.6501 23.9062 29.5312 23.9062C28.4124 23.9062 27.3393 23.4618 26.5481 22.6706C25.757 21.8794 25.3125 20.8064 25.3125 19.6875V18.2812H21.0938V70.3125C21.0938 71.4314 21.5382 72.5044 22.3294 73.2956C23.1206 74.0868 24.1936 74.5312 25.3125 74.5312H64.6875C65.8064 74.5312 66.8794 74.0868 67.6706 73.2956C68.4618 72.5044 68.9062 71.4314 68.9062 70.3125V18.2812Z" fill="#3F3BE1" fill-opacity="0.2"/>
</svg>
