<svg width="86" height="81" viewBox="0 0 86 81" fill="none" xmlns="http://www.w3.org/2000/svg">
<path d="M32.0625 35.0625C32.0625 33.8193 32.5564 32.627 33.4354 31.7479C34.3145 30.8689 35.5068 30.375 36.75 30.375H49.25C50.4932 30.375 51.6855 30.8689 52.5646 31.7479C53.4436 32.627 53.9375 33.8193 53.9375 35.0625C53.9375 36.3057 53.4436 37.498 52.5646 38.3771C51.6855 39.2561 50.4932 39.75 49.25 39.75H36.75C35.5068 39.75 34.3145 39.2561 33.4354 38.3771C32.5564 37.498 32.0625 36.3057 32.0625 35.0625ZM85.1875 22.5625V72.5625C85.1875 74.6345 84.3644 76.6216 82.8993 78.0868C81.4341 79.5519 79.447 80.375 77.375 80.375H8.625C6.553 80.375 4.56586 79.5519 3.10073 78.0868C1.6356 76.6216 0.8125 74.6345 0.8125 72.5625V22.5625C0.8125 20.4905 1.6356 18.5034 3.10073 17.0382C4.56586 15.5731 6.553 14.75 8.625 14.75H22.6875V11.625C22.6875 8.72419 23.8398 5.9422 25.891 3.89102C27.9422 1.83984 30.7242 0.6875 33.625 0.6875H52.375C55.2758 0.6875 58.0578 1.83984 60.109 3.89102C62.1602 5.9422 63.3125 8.72419 63.3125 11.625V14.75H77.375C79.447 14.75 81.4341 15.5731 82.8993 17.0382C84.3644 18.5034 85.1875 20.4905 85.1875 22.5625ZM32.0625 14.75H53.9375V11.625C53.9375 11.2106 53.7729 10.8132 53.4799 10.5201C53.1868 10.2271 52.7894 10.0625 52.375 10.0625H33.625C33.2106 10.0625 32.8132 10.2271 32.5201 10.5201C32.2271 10.8132 32.0625 11.2106 32.0625 11.625V14.75ZM10.1875 24.125V37.8867C20.3029 43.2181 31.5656 46.0029 43 46C54.4348 46.0027 65.6978 43.2164 75.8125 37.8828V24.125H10.1875ZM75.8125 71V48.3203C65.4988 52.9715 54.314 55.3763 43 55.375C31.686 55.377 20.5009 52.9722 10.1875 48.3203V71H75.8125Z" fill="#3F3BE1" fill-opacity="0.2"/>
</svg>
